<svg width="279" height="279" viewBox="0 0 279 279" fill="none" xmlns="http://www.w3.org/2000/svg">
<path d="M154.753 24.8336C151.14 24.3648 147.468 24.9345 144.166 26.476C140.865 28.0175 138.07 30.4671 136.109 33.5384L104.114 83.6433L47.3016 84.8152C43.7739 84.893 40.3359 85.942 37.3656 87.847C34.3953 89.7519 32.0077 92.4389 30.4654 95.6127C28.923 98.7864 28.2855 102.324 28.623 105.837C28.9605 109.349 30.2599 112.701 32.3784 115.522L67.8429 162.781L50.4293 220.848C49.3971 224.297 49.3558 227.966 50.3102 231.438C51.2646 234.909 53.1762 238.042 55.8265 240.478C58.4768 242.915 61.759 244.556 65.2981 245.216C68.8371 245.875 72.4903 245.526 75.8403 244.207L128.964 223.321L175.021 257.268C177.922 259.404 181.367 260.68 184.959 260.95C188.552 261.22 192.149 260.473 195.337 258.794C198.525 257.116 201.176 254.573 202.987 251.458C204.798 248.343 205.695 244.781 205.576 241.18L203.582 180.573L249.857 144.108C252.63 141.927 254.748 139.022 255.978 135.715C257.208 132.407 257.502 128.825 256.828 125.361C256.154 121.897 254.538 118.686 252.158 116.082C249.777 113.477 246.725 111.578 243.336 110.596L188.72 94.791L170.553 38.0138C169.443 34.5434 167.367 31.461 164.569 29.127C161.771 26.793 158.366 25.3038 154.753 24.8336Z" fill="#727272"/>
</svg>
