<svg width="279" height="279" viewBox="0 0 279 279" fill="none" xmlns="http://www.w3.org/2000/svg">
<path d="M223.991 54.0554C201.67 31.735 171.413 21.077 139.842 21.0004C108.27 20.9238 77.9529 31.4347 55.5235 53.6465V27.1529H39.3764V83.6481H95.891V67.5066H64.4582C78.7914 58.6904 85.0613 52.1113 97.9626 46.5529C110.864 40.9945 125.793 39.5272 139.842 39.526C196.846 39.526 238.551 81.5443 238.551 138.529C238.551 195.514 196.846 235.642 139.842 235.642C82.8372 235.642 43.0053 195.514 43.0053 138.529H20C19.9953 162.157 27.0005 185.255 40.1297 204.903C53.2589 224.55 71.9221 239.864 93.7587 248.906C115.595 257.949 139.624 260.314 162.806 255.703C185.987 251.093 207.28 239.713 223.991 223.003C235.09 211.911 243.894 198.741 249.901 184.247C255.908 169.753 259 154.218 259 138.529C259 122.84 255.908 107.305 249.901 92.8109C243.894 78.3167 235.09 65.1475 223.991 54.0554Z" fill="#727272"/>
<path d="M135 95V146.836L178 181" stroke="#727272" stroke-width="10"/>
</svg>
