<svg width="61" height="61" viewBox="0 0 61 61" fill="none" xmlns="http://www.w3.org/2000/svg">
<path d="M27.8003 32.3306C29.5263 32.3306 30.9253 33.7296 30.9253 35.4556C30.9253 37.1816 29.5263 38.5806 27.8003 38.5806C26.0743 38.5806 24.6753 37.1816 24.6753 35.4556C24.6753 33.7296 26.0743 32.3306 27.8003 32.3306Z" fill="#727272"/>
<path fill-rule="evenodd" clip-rule="evenodd" d="M16.3468 20.4556C16.3468 13.3846 16.3468 9.84903 18.3902 7.65233C20.4337 5.45563 23.7226 5.45563 30.3003 5.45563C36.878 5.45563 40.1668 5.45563 42.2103 7.65233C44.2538 9.84903 44.2538 13.3846 44.2538 20.4556V40.4556C44.2538 47.5266 44.2538 51.0621 42.2103 53.2589C40.1668 55.4556 36.878 55.4556 30.3003 55.4556C23.7226 55.4556 20.4337 55.4556 18.3902 53.2589C16.3468 51.0621 16.3468 47.5266 16.3468 40.4556V20.4556ZM34.6753 20.4556C34.6753 19.4201 33.8358 18.5806 32.8003 18.5806C31.7648 18.5806 30.9253 19.4201 30.9253 20.4556V29.3304C29.9878 28.8509 28.9255 28.5806 27.8003 28.5806C24.0033 28.5806 20.9253 31.6586 20.9253 35.4556C20.9253 39.2526 24.0033 42.3306 27.8003 42.3306C31.5973 42.3306 34.6753 39.2526 34.6753 35.4556V26.5809C35.6128 27.0604 36.675 27.3306 37.8003 27.3306C38.8358 27.3306 39.6753 26.4911 39.6753 25.4556C39.6753 24.4201 38.8358 23.5806 37.8003 23.5806C36.0743 23.5806 34.6753 22.1815 34.6753 20.4556Z" fill="#727272"/>
<path d="M12.8584 20.2088V40.7024C12.8583 43.1594 12.8582 45.3651 12.9739 47.2749C13.0148 47.9491 13.0701 48.5864 13.145 49.1849C13.1786 49.4536 13.2168 49.7211 13.2606 49.9871C13.3495 50.5276 12.9317 51.0371 12.3862 50.9891C11.3088 50.8946 10.3358 50.6929 9.42712 50.1951C8.00494 49.4161 6.84872 48.1731 6.12409 46.6444C5.66107 45.6674 5.47332 44.6214 5.38529 43.4634C5.30027 42.3444 5.30027 40.9676 5.30029 39.2841V21.6271C5.30027 19.9437 5.30027 18.5669 5.38529 17.448C5.47332 16.2898 5.66107 15.2438 6.12409 14.267C6.84872 12.7381 8.00494 11.4952 9.42712 10.7162C10.3358 10.2185 11.3088 10.0166 12.3862 9.92201C12.9317 9.87411 13.3495 10.3838 13.2606 10.9241C13.2168 11.19 13.1786 11.4576 13.145 11.7264C13.0701 12.3249 13.0148 12.9622 12.9739 13.6365C12.8582 15.5462 12.8583 17.7519 12.8584 20.2088Z" fill="#727272"/>
<path d="M47.7421 20.2088V40.7024C47.7423 43.1594 47.7423 45.3651 47.6266 47.2749C47.5858 47.9491 47.5306 48.5864 47.4556 49.1849C47.4221 49.4536 47.3838 49.7211 47.3401 49.9871C47.2511 50.5276 47.6688 51.0371 48.2143 50.9891C49.2918 50.8946 50.2648 50.6929 51.1736 50.1951C52.5956 49.4161 53.7518 48.1731 54.4766 46.6444C54.9396 45.6674 55.1273 44.6214 55.2153 43.4634C55.3003 42.3444 55.3003 40.9676 55.3003 39.2844V21.6271C55.3003 19.9438 55.3003 18.5668 55.2153 17.448C55.1273 16.2898 54.9396 15.2438 54.4766 14.267C53.7518 12.7381 52.5956 11.4952 51.1736 10.7162C50.2648 10.2185 49.2918 10.0166 48.2143 9.92201C47.6688 9.87411 47.2511 10.3838 47.3401 10.9241C47.3838 11.19 47.4221 11.4576 47.4556 11.7264C47.5306 12.3249 47.5858 12.9622 47.6266 13.6365C47.7423 15.5462 47.7423 17.7519 47.7421 20.2088Z" fill="#727272"/>
</svg>
