<svg width="182" height="182" viewBox="0 0 182 182" fill="none" xmlns="http://www.w3.org/2000/svg">
<path fill-rule="evenodd" clip-rule="evenodd" d="M105.824 12.2331C102.842 11 99.0613 11 91.4999 11C83.9385 11 80.1578 11 77.1759 12.2331C73.1995 13.8774 70.0404 17.0311 68.3934 21.0005C67.6415 22.8126 67.3473 24.9199 67.2321 27.9937C67.0629 32.511 64.7423 36.6923 60.8208 38.9525C56.8992 41.2127 52.1116 41.1283 48.1083 39.016C45.384 37.5785 43.4088 36.7792 41.4608 36.5233C37.1937 35.9624 32.8783 37.1168 29.4638 39.7323C26.9029 41.694 25.0125 44.9625 21.2319 51.4994C17.4513 58.0365 15.561 61.3049 15.1397 64.4998C14.5779 68.7595 15.7342 73.0675 18.3543 76.4764C19.5502 78.0324 21.2309 79.3397 23.8393 80.9759C27.6741 83.3816 30.1415 87.4794 30.1412 92C30.141 96.5206 27.6737 100.618 23.8393 103.022C21.2305 104.659 19.5495 105.968 18.3535 107.524C15.7334 110.932 14.5771 115.24 15.1389 119.5C15.5602 122.694 17.4506 125.963 21.2311 132.5C25.0117 139.037 26.9021 142.306 29.463 144.267C32.8775 146.882 37.1929 148.037 41.46 147.476C43.4079 147.22 45.3829 146.421 48.107 144.984C52.1107 142.871 56.8986 142.787 60.8204 145.047C64.7422 147.308 67.0629 151.489 67.2321 156.007C67.3473 159.08 67.6415 161.188 68.3934 163C70.0404 166.969 73.1995 170.123 77.1759 171.767C80.1578 173 83.9385 173 91.4999 173C99.0613 173 102.842 173 105.824 171.767C109.8 170.123 112.959 166.969 114.606 163C115.358 161.188 115.653 159.08 115.768 156.006C115.937 151.489 118.257 147.308 122.179 145.047C126.1 142.786 130.889 142.871 134.892 144.984C137.616 146.421 139.591 147.219 141.539 147.475C145.806 148.037 150.121 146.882 153.536 144.267C156.097 142.305 157.987 139.037 161.768 132.499C165.549 125.963 167.439 122.694 167.861 119.5C168.422 115.24 167.265 110.931 164.646 107.523C163.449 105.967 161.769 104.659 159.16 103.022C155.326 100.618 152.858 96.5198 152.858 91.9992C152.858 87.4786 155.326 83.3824 159.16 80.9775C161.77 79.3405 163.45 78.0332 164.647 76.4764C167.266 73.0681 168.423 68.76 167.861 64.5003C167.439 61.3055 165.549 58.0369 161.769 51.5C157.988 44.9631 156.098 41.6945 153.537 39.7329C150.122 37.1173 145.807 35.963 141.54 36.5238C139.592 36.7798 137.616 37.579 134.893 39.0163C130.889 41.1287 126.101 41.2132 122.18 38.9528C118.258 36.6925 115.937 32.5108 115.767 27.9933C115.652 24.9197 115.358 22.8125 114.606 21.0005C112.959 17.0311 109.8 13.8774 105.824 12.2331ZM91.4999 116.3C104.944 116.3 115.841 105.421 115.841 92C115.841 78.5791 104.944 67.7 91.4999 67.7C78.0561 67.7 67.1581 78.5791 67.1581 92C67.1581 105.421 78.0561 116.3 91.4999 116.3Z" fill="#727272"/>
</svg>
