<svg width="36" height="30" viewBox="0 0 36 30" fill="none" xmlns="http://www.w3.org/2000/svg">
<path d="M1.51358 0C0.675058 0 0 0.661742 0 1.48373C0 2.30571 0.675058 2.96745 1.51358 2.96745H24.2173C25.0558 2.96745 25.7309 2.30571 25.7309 1.48373C25.7309 0.661742 25.0558 0 24.2173 0H1.51358ZM1.51358 10.3861C0.675058 10.3861 0 11.0478 0 11.8698C0 12.6918 0.675058 13.3535 1.51358 13.3535H28.7581C29.5966 13.3535 30.2716 12.6918 30.2716 11.8698C30.2716 11.0478 29.5966 10.3861 28.7581 10.3861H1.51358ZM1.51358 20.7722C0.675058 20.7722 0 21.4339 0 22.2559C0 23.0779 0.675058 23.7396 1.51358 23.7396H16.6494C17.4879 23.7396 18.163 23.0779 18.163 22.2559C18.163 21.4339 17.4879 20.7722 16.6494 20.7722H1.51358Z" fill="#E3E3E3"/>
<path d="M23.4629 24.5L28.0535 29L35.0001 19" stroke="#E3E3E3" stroke-width="2" stroke-linecap="round" stroke-linejoin="round"/>
</svg>
