<svg width="36" height="33" viewBox="0 0 36 33" fill="none" xmlns="http://www.w3.org/2000/svg">
<path d="M1.48373 0C0.661742 0 0 0.661742 0 1.48373C0 2.30571 0.661742 2.96745 1.48373 2.96745H23.7396C24.5616 2.96745 25.2234 2.30571 25.2234 1.48373C25.2234 0.661742 24.5616 0 23.7396 0H1.48373ZM1.48373 10.3861C0.661742 10.3861 0 11.0478 0 11.8698C0 12.6918 0.661742 13.3535 1.48373 13.3535H28.1908C29.0128 13.3535 29.6745 12.6918 29.6745 11.8698C29.6745 11.0478 29.0128 10.3861 28.1908 10.3861H1.48373ZM28.1155 17.8105C27.6069 17.8105 27.111 17.8602 26.6317 17.9583V23.673H20.92C20.8219 24.1523 20.7722 24.6482 20.7722 25.1567C20.7722 25.6653 20.8219 26.1612 20.92 26.6404H26.6317V32.3522C27.111 32.4503 27.6069 32.5 28.1155 32.5C28.624 32.5 29.1199 32.4503 29.5992 32.3522V26.6404H35.3139C35.412 26.1612 35.4617 25.6653 35.4617 25.1567C35.4617 24.6482 35.412 24.1523 35.3139 23.673H29.5992V17.9583C29.1199 17.8602 28.624 17.8105 28.1155 17.8105ZM1.48373 20.7722C0.661742 20.7722 0 21.4339 0 22.2559C0 23.0779 0.661742 23.7396 1.48373 23.7396H16.321C17.143 23.7396 17.8047 23.0779 17.8047 22.2559C17.8047 21.4339 17.143 20.7722 16.321 20.7722H1.48373Z" fill="#E3E3E3"/>
</svg>
