<svg width="38" height="31" viewBox="0 0 38 31" fill="none" xmlns="http://www.w3.org/2000/svg">
<path d="M10.7505 18.0483C10.5874 17.9061 10.4572 17.736 10.3677 17.5479C10.2782 17.3598 10.231 17.1575 10.2291 16.9528C10.2271 16.7481 10.2703 16.5451 10.3562 16.3556C10.4421 16.1661 10.569 15.994 10.7294 15.8493C10.8898 15.7045 11.0805 15.59 11.2905 15.5125C11.5004 15.435 11.7254 15.396 11.9522 15.3978C12.179 15.3996 12.4032 15.4421 12.6116 15.5229C12.82 15.6037 13.0085 15.7211 13.1661 15.8684L17.0833 19.4034V1.54167C17.0833 1.13279 17.2633 0.740662 17.5837 0.451544C17.9041 0.162425 18.3386 0 18.7917 0C19.2447 0 19.6793 0.162425 19.9996 0.451544C20.32 0.740662 20.5 1.13279 20.5 1.54167V19.4034L24.4172 15.8684C24.7394 15.5875 25.1709 15.4322 25.6189 15.4357C26.0668 15.4392 26.4952 15.6013 26.812 15.8872C27.1287 16.173 27.3084 16.5597 27.3123 16.9639C27.3162 17.3681 27.144 17.7575 26.8328 18.0483L19.9995 24.215C19.8404 24.3578 19.6518 24.4709 19.4442 24.548C19.2376 24.6263 19.0158 24.6667 18.7917 24.6667C18.5676 24.6667 18.3457 24.6263 18.1391 24.548C17.9316 24.4709 17.7429 24.3578 17.5839 24.215L10.7505 18.0483ZM35.875 15.4167C35.4219 15.4167 34.9874 15.5791 34.667 15.8682C34.3466 16.1573 34.1667 16.5495 34.1667 16.9583V27.75H3.41667V16.9583C3.41667 16.5495 3.23668 16.1573 2.91631 15.8682C2.59593 15.5791 2.16141 15.4167 1.70833 15.4167C1.25526 15.4167 0.820734 15.5791 0.500359 15.8682C0.179985 16.1573 0 16.5495 0 16.9583V29.2917C0 29.7005 0.179985 30.0927 0.500359 30.3818C0.820734 30.6709 1.25526 30.8333 1.70833 30.8333H35.875C36.3281 30.8333 36.7626 30.6709 37.083 30.3818C37.4033 30.0927 37.5833 29.7005 37.5833 29.2917V16.9583C37.5833 16.5495 37.4033 16.1573 37.083 15.8682C36.7626 15.5791 36.3281 15.4167 35.875 15.4167Z" fill="#E3E3E3"/>
</svg>
