<svg width="34" height="28" viewBox="0 0 34 28" fill="none" xmlns="http://www.w3.org/2000/svg">
<path d="M9.72555 16.3898C9.57794 16.2607 9.4602 16.1062 9.37921 15.9354C9.29821 15.7646 9.25558 15.5809 9.2538 15.395C9.25201 15.2091 9.29111 15.0247 9.36882 14.8527C9.44653 14.6806 9.56128 14.5243 9.70639 14.3928C9.8515 14.2614 10.024 14.1574 10.214 14.087C10.4039 14.0167 10.6074 13.9812 10.8126 13.9828C11.0178 13.9845 11.2206 14.0231 11.4092 14.0965C11.5977 14.1698 11.7683 14.2765 11.9108 14.4102L15.4545 17.6204V1.4C15.4545 1.0287 15.6174 0.672601 15.9072 0.41005C16.197 0.1475 16.5901 0 17 0C17.4099 0 17.803 0.1475 18.0928 0.41005C18.3826 0.672601 18.5455 1.0287 18.5455 1.4V17.6204L22.0892 14.4102C22.3807 14.1552 22.771 14.0141 23.1763 14.0173C23.5815 14.0204 23.9691 14.1677 24.2556 14.4273C24.5422 14.6868 24.7047 15.038 24.7082 15.405C24.7117 15.7721 24.556 16.1258 24.2745 16.3898L18.0926 21.9898C17.9488 22.1195 17.7781 22.2223 17.5904 22.2922C17.4035 22.3634 17.2027 22.4 17 22.4C16.7973 22.4 16.5965 22.3634 16.4096 22.2922C16.2219 22.2223 16.0512 22.1195 15.9074 21.9898L9.72555 16.3898ZM32.4545 14C32.0447 14 31.6516 14.1475 31.3617 14.4101C31.0719 14.6726 30.9091 15.0287 30.9091 15.4V25.2H3.09091V15.4C3.09091 15.0287 2.92809 14.6726 2.63826 14.4101C2.34843 14.1475 1.95533 14 1.54545 14C1.13557 14 0.742482 14.1475 0.452653 14.4101C0.162824 14.6726 0 15.0287 0 15.4V26.6C0 26.9713 0.162824 27.3274 0.452653 27.5899C0.742482 27.8525 1.13557 28 1.54545 28H32.4545C32.8644 28 33.2575 27.8525 33.5473 27.5899C33.8372 27.3274 34 26.9713 34 26.6V15.4C34 15.0287 33.8372 14.6726 33.5473 14.4101C33.2575 14.1475 32.8644 14 32.4545 14Z" fill="#E3E3E3"/>
</svg>
