<svg width="39" height="28" viewBox="0 0 39 28" fill="none" xmlns="http://www.w3.org/2000/svg">
<path d="M1.36841 12.3158H34.2105" stroke="#E3E3E3" stroke-width="2.73684" stroke-linecap="round" stroke-linejoin="round"/>
<path d="M1.36841 24.6316H23.2631" stroke="#E3E3E3" stroke-width="2.73684" stroke-linecap="round" stroke-linejoin="round"/>
<path d="M1.36841 1.36841H34.2105" stroke="#E3E3E3" stroke-width="2.75" stroke-linecap="round" stroke-linejoin="round"/>
<path d="M38.7926 23.1644L30.5426 19.0394C30.4264 18.9816 30.2887 18.9876 30.1781 19.0559C30.0675 19.1245 30 19.2449 30 19.375V27.625C30 27.7551 30.0675 27.8755 30.1781 27.9441C30.2381 27.9812 30.3064 28 30.375 28C30.4324 28 30.4897 27.9869 30.5426 27.9606L38.7926 23.8356C38.9198 23.7719 39 23.6421 39 23.5C39 23.3579 38.9198 23.2281 38.7926 23.1644Z" fill="#E3E3E3"/>
</svg>
