<svg width="32" height="32" viewBox="0 0 32 32" fill="none" xmlns="http://www.w3.org/2000/svg">
<path d="M2.66675 14.6667H26.6667" stroke="#676767" stroke-width="2" stroke-linecap="round" stroke-linejoin="round"/>
<path d="M2.66675 22.6667H18.6667" stroke="#676767" stroke-width="2" stroke-linecap="round" stroke-linejoin="round"/>
<path d="M2.66675 6.66667H26.6667" stroke="#676767" stroke-width="2" stroke-linecap="round" stroke-linejoin="round"/>
<path d="M28.8618 21.7763L23.3617 19.0262C23.2842 18.9878 23.1925 18.9917 23.1187 19.0373C23.045 19.083 23 19.1633 23 19.25V24.75C23 24.8367 23.045 24.917 23.1187 24.9627C23.1587 24.9875 23.2042 25 23.25 25C23.2882 25 23.3265 24.9912 23.3617 24.9737L28.8617 22.2237C28.9465 22.1813 29 22.0947 29 22C29 21.9053 28.9465 21.8187 28.8618 21.7763Z" fill="#676767"/>
</svg>
