<svg width="32" height="32" viewBox="0 0 32 32" fill="none" xmlns="http://www.w3.org/2000/svg">
<path d="M23.9999 8L22.9321 24.0172C22.8386 25.42 22.7918 26.1215 22.4889 26.6533C22.2221 27.1216 21.8197 27.498 21.3347 27.7331C20.7839 28 20.0809 28 18.6749 28H13.3249C11.9189 28 11.2159 28 10.6651 27.7331C10.1801 27.498 9.77777 27.1216 9.51101 26.6533C9.20801 26.1215 9.16125 25.42 9.06773 24.0172L7.99992 8M5.33325 8H26.6666M21.3333 8L20.9725 6.91743C20.6227 5.86833 20.4478 5.34379 20.1235 4.95597C19.8371 4.61351 19.4694 4.34843 19.0539 4.18504C18.5834 4 18.0306 4 16.9247 4H15.0751C13.9693 4 13.4165 4 12.9459 4.18504C12.5305 4.34843 12.1627 4.61351 11.8763 4.95597C11.552 5.34379 11.3771 5.86833 11.0274 6.91743L10.6666 8" stroke="#676767" stroke-width="2" stroke-linecap="round" stroke-linejoin="round"/>
</svg>
