<svg width="279" height="280" viewBox="0 0 279 280" fill="none" xmlns="http://www.w3.org/2000/svg">
<g clip-path="url(#clip0_328_44)">
<path d="M257.69 136.829C263.264 113.33 257.662 91.2874 245.61 75.4997C230.113 55.1767 203.914 45.1898 177.111 55.6508C168.26 59.1223 159.322 64.8127 150.686 73.1208C147.362 61.6082 142.477 52.2139 136.534 44.7896C118.555 22.318 90.8835 17.8703 67.288 27.7299C48.9463 35.3737 33.0831 51.6649 26.1613 74.8024C22.4749 87.0864 20.6669 101.414 23.6908 117.206C28.4439 141.999 65.3244 204.176 100.525 258.768L100.786 259.268L100.812 259.253L100.828 259.279L101.314 258.98C159.082 229.309 222.099 193.9 238.625 174.797C249.15 162.636 254.73 149.308 257.69 136.829Z" fill="#727272"/>
</g>
<defs>
<clipPath id="clip0_328_44">
<rect width="279" height="280" rx="15" fill="white"/>
</clipPath>
</defs>
</svg>
