<svg width="280" height="278" viewBox="0 0 280 278" fill="none" xmlns="http://www.w3.org/2000/svg">
<path d="M140 21C108.439 21 78.1711 33.4321 55.8543 55.5614C33.5375 77.6907 21 107.704 21 139C21 170.296 33.5375 200.309 55.8543 222.439C78.1711 244.568 108.439 257 140 257C171.561 257 201.829 244.568 224.146 222.439C246.463 200.309 259 170.296 259 139C259 107.704 246.463 77.6907 224.146 55.5614C201.829 33.4321 171.561 21 140 21ZM140 91.4082C152.729 91.41 164.935 96.4247 173.936 105.35C182.936 114.274 187.993 126.378 187.995 139C187.993 151.622 182.936 163.726 173.936 172.65C164.935 181.575 152.729 186.59 140 186.592C127.271 186.59 115.065 181.575 106.064 172.65C97.0639 163.726 92.0067 151.622 92.0049 139C92.0067 126.378 97.0639 114.274 106.064 105.35C115.065 96.4247 127.271 91.41 140 91.4082ZM140 129.167C137.37 129.167 134.848 130.203 132.988 132.047C131.128 133.891 130.083 136.392 130.083 139C130.083 141.608 131.128 144.109 132.988 145.953C134.848 147.797 137.37 148.833 140 148.833C142.63 148.833 145.152 147.797 147.012 145.953C148.872 144.109 149.917 141.608 149.917 139C149.917 136.392 148.872 133.891 147.012 132.047C145.152 130.203 142.63 129.167 140 129.167Z" fill="#727272"/>
</svg>
