<?xml version="1.0" standalone="no"?>
<!DOCTYPE svg PUBLIC "-//W3C//DTD SVG 20010904//EN"
 "http://www.w3.org/TR/2001/REC-SVG-20010904/DTD/svg10.dtd">
<svg version="1.0" xmlns="http://www.w3.org/2000/svg"
 width="50px" height="50px" viewBox="0 0 512.000000 512.000000"
 preserveAspectRatio="xMidYMid meet">

<g transform="translate(0.000000,512.000000) scale(0.100000,-0.100000)"
fill="#FFFFFF" stroke="none">
<path d="M2335 4939 c-1012 -105 -1841 -816 -2090 -1793 -54 -214 -69 -342
-69 -586 0 -244 15 -372 69 -586 216 -847 882 -1513 1729 -1729 214 -54 342
-69 586 -69 244 0 373 15 585 69 178 46 305 93 470 175 629 312 1088 877 1260
1554 54 214 69 342 69 586 0 244 -15 372 -69 586 -44 173 -91 298 -175 470
-347 704 -1016 1191 -1800 1309 -128 19 -442 27 -565 14z m818 -244 c502 -137
932 -447 1243 -894 58 -85 58 -89 -3 -44 -56 41 -175 92 -253 109 -259 55
-526 -88 -725 -388 -26 -40 -49 -74 -50 -76 -4 -5 -56 21 -53 27 2 3 36 71 76
151 98 195 125 300 119 460 -4 139 -29 220 -98 324 -75 116 -254 277 -371 337
-21 11 -38 22 -38 24 0 10 30 4 153 -30z m-451 -34 c167 -43 327 -138 464
-275 105 -105 147 -179 166 -294 14 -84 3 -189 -32 -293 -23 -66 -93 -213
-134 -278 l-24 -38 -74 13 c-332 59 -714 -62 -1086 -343 -46 -35 -87 -63 -92
-63 -4 0 -27 25 -50 55 -93 120 -245 237 -372 286 -54 20 -58 24 -58 55 0 54
39 242 72 344 147 460 488 788 883 850 85 13 247 4 337 -19z m-827 1 c-6 -5
-39 -31 -75 -59 -283 -221 -493 -612 -551 -1027 l-12 -86 -87 0 c-177 0 -385
-55 -577 -154 -122 -63 -120 -67 -51 94 205 487 596 897 1074 1127 144 69 310
132 279 105z m2341 -1002 c179 -88 380 -331 438 -529 67 -228 -8 -468 -215
-686 -70 -74 -196 -181 -203 -174 -2 2 -16 40 -31 84 -103 310 -394 728 -632
907 -29 22 -53 45 -53 50 0 26 102 162 174 233 126 124 228 169 366 161 62 -4
88 -12 156 -46z m-1207 -329 c23 -6 21 -10 -58 -109 -45 -57 -128 -155 -185
-220 -130 -148 -546 -602 -551 -602 -10 0 -54 101 -100 225 -26 71 -67 171
-90 221 l-42 91 61 49 c225 180 496 312 706 343 67 10 226 12 259 2z m-1778
-181 c8 -207 24 -320 75 -541 l25 -106 -80 -106 c-209 -277 -454 -691 -551
-929 -13 -32 -27 -58 -30 -58 -11 0 -107 181 -154 293 -44 103 -101 281 -125
392 -58 262 -64 576 -15 846 l16 86 86 58 c225 149 475 236 667 232 l80 -2 6
-165z m2045 75 c-3 -11 -25 -78 -50 -150 -24 -71 -54 -174 -65 -228 -50 -234
-65 -552 -36 -792 8 -66 15 -123 15 -127 0 -13 -95 -9 -207 8 -233 34 -447
136 -582 278 -34 35 -34 36 -15 58 10 12 114 126 230 253 286 313 429 477 546
627 l99 127 35 -17 c28 -13 34 -21 30 -37z m-1782 3 c73 -43 149 -111 212
-189 l56 -68 -94 -93 c-52 -51 -118 -119 -147 -151 -29 -32 -54 -57 -56 -55
-1 2 -10 42 -19 90 -26 136 -46 313 -46 416 0 107 -2 106 94 50z m2055 -174
c170 -162 312 -356 415 -569 54 -111 121 -299 111 -315 -8 -13 -163 -86 -266
-126 -52 -19 -143 -48 -204 -64 -112 -28 -281 -57 -290 -49 -13 14 -35 261
-35 397 0 176 10 287 41 442 22 112 106 380 119 380 4 0 53 -43 109 -96z
m-1650 -344 c23 -55 56 -140 72 -188 17 -48 51 -126 76 -174 l46 -86 -124
-149 c-69 -81 -135 -163 -147 -180 -13 -18 -27 -33 -30 -33 -24 0 -171 289
-236 463 l-37 99 70 81 c81 95 249 267 260 267 5 0 27 -45 50 -100z m2878
-226 c-36 -742 -390 -1369 -1001 -1775 -101 -67 -347 -199 -371 -199 -4 0 18
27 49 61 102 110 160 263 155 412 l-2 68 104 52 c141 70 210 118 300 208 175
175 262 390 261 651 0 88 4 128 12 131 30 12 159 118 239 196 95 92 165 181
217 274 17 31 34 57 38 57 3 0 2 -61 -1 -136z m-3348 -266 c43 -109 129 -277
195 -382 31 -48 56 -92 56 -97 0 -5 -15 -32 -34 -61 -133 -209 -218 -471 -201
-622 22 -190 118 -349 287 -476 80 -61 217 -136 291 -160 74 -24 28 -21 -61 4
-420 119 -818 375 -1093 705 -66 78 -79 100 -74 120 3 13 34 88 69 167 71 159
186 372 299 551 84 132 227 336 232 331 2 -2 17 -38 34 -80z m846 -166 c202
-186 521 -302 831 -302 l71 0 45 -137 c25 -76 73 -196 106 -268 86 -188 87
-170 -5 -183 -139 -20 -206 -22 -323 -12 -378 34 -731 206 -1003 489 -53 56
-97 105 -97 110 0 12 288 370 298 371 2 0 37 -30 77 -68z m1822 -165 c-16
-267 -190 -507 -459 -632 -65 -31 -75 -31 -84 -2 -3 12 -33 81 -66 152 -33 72
-77 180 -98 242 l-39 111 52 7 c180 23 441 99 600 175 45 21 86 39 91 39 5 1
7 -39 3 -92z m-1977 -583 c225 -161 476 -266 740 -309 129 -21 382 -23 493 -3
42 8 79 12 82 10 9 -9 5 -69 -6 -124 -48 -226 -274 -367 -643 -400 -475 -43
-971 147 -1119 429 -85 162 -68 316 66 576 l60 117 121 -118 c67 -65 159 -145
206 -178z"/>
</g>
</svg>
