<svg width="180" height="33" viewBox="0 0 180 33" fill="none" xmlns="http://www.w3.org/2000/svg">
<g clip-path="url(#clip0_194_45)">
<path d="M21.1853 32.9539C19.5825 32.9838 18.0029 32.5591 16.6205 31.7267C15.3115 30.9304 14.239 29.7832 13.5182 28.4085C12.7738 26.9835 12.3926 25.3886 12.4102 23.7721V8.54485C12.4206 7.88196 12.2519 7.22906 11.9227 6.65849C11.606 6.10414 11.1558 5.64245 10.6153 5.31758C10.0729 4.98564 9.45204 4.8127 8.82041 4.81757C8.19568 4.81217 7.58184 4.9853 7.04766 5.31758C6.51846 5.64962 6.07707 6.11013 5.76242 6.65849C5.43537 7.22997 5.2668 7.88225 5.27492 8.54485V32.4085H0.0010044V9.22666C-0.0222638 7.60224 0.359093 5.9986 1.10897 4.56757C1.835 3.20271 2.9068 2.06417 4.21127 1.27212C5.60825 0.435782 7.20318 0.011101 8.82041 0.044848C10.4521 0.00671272 12.0625 0.431407 13.4739 1.27212C14.7783 2.06417 15.8501 3.20271 16.5762 4.56757C17.3283 5.99772 17.7098 7.60196 17.6841 9.22666V24.4539C17.676 25.1165 17.8446 25.7688 18.1716 26.3403C18.4863 26.8887 18.9277 27.3492 19.4569 27.6812C19.9764 28.0096 20.575 28.1827 21.1853 28.1812C21.8102 28.1883 22.4245 28.0151 22.958 27.6812C23.4846 27.3533 23.9197 26.8914 24.2211 26.3403C24.5371 25.7652 24.6978 25.114 24.6865 24.4539V0.590301H30.0047V23.7721C30.0242 25.3889 29.643 26.9842 28.8967 28.4085C28.1757 29.7831 27.1032 30.9302 25.7944 31.7267C24.3983 32.5652 22.8028 32.9901 21.1853 32.9539Z" fill="white"/>
<path d="M52.8732 32.9994C50.5876 33.0321 48.319 32.5915 46.2033 31.7039C44.2815 30.89 42.5458 29.6748 41.1066 28.1358C39.6992 26.6102 38.5931 24.8197 37.8492 22.863C36.313 18.7434 36.313 14.1872 37.8492 10.0676C38.5966 8.11947 39.7025 6.33707 41.1066 4.81758C42.5433 3.28111 44.2801 2.07296 46.2033 1.27212C50.5038 -0.424041 55.2648 -0.424041 59.5653 1.27212C61.4849 2.07985 63.2203 3.28709 64.662 4.81758C66.0803 6.33007 67.1946 8.11393 67.9415 10.0676C69.4778 14.1872 69.4778 18.7434 67.9415 22.863C67.1981 24.8253 66.0835 26.6172 64.662 28.1358C63.2178 29.6688 61.4835 30.8831 59.5653 31.7039C57.4432 32.5961 55.1664 33.0368 52.8732 32.9994ZM52.8732 28.1812C54.363 28.1976 55.8406 27.9038 57.2164 27.3176C58.5329 26.7517 59.7184 25.9076 60.6955 24.8403C61.6903 23.7572 62.466 22.4827 62.9779 21.0903C64.0415 18.0957 64.0415 14.8122 62.9779 11.8176C62.4729 10.4352 61.696 9.17421 60.6955 8.11303C59.1392 6.51111 57.1524 5.42183 54.9891 4.98457C52.8259 4.54731 50.5846 4.78196 48.5522 5.65849C47.241 6.24095 46.0561 7.08561 45.0669 8.14313C44.0776 9.20065 43.3039 10.4498 42.7907 11.8176C42.233 13.3115 41.9548 14.8998 41.9708 16.4994C41.9554 18.0768 42.2337 19.6427 42.7907 21.113C43.3224 22.4937 44.1044 23.7584 45.0953 24.8403C46.0684 25.9021 47.2454 26.7455 48.5522 27.3176C49.92 27.9046 51.3905 28.1985 52.8732 28.1812Z" fill="white"/>
<path d="M75.2053 32.4085V27.6358H80.9667V5.36303H75.2053V0.590305H92.0464V5.36303H86.285V27.6358H92.0464V32.4085H75.2053Z" fill="white"/>
<path d="M99.7178 32.4085V27.6358H113.058C113.841 27.6515 114.612 27.4302 115.274 26.9994C115.903 26.5844 116.421 26.014 116.78 25.3403C117.145 24.6824 117.336 23.9381 117.334 23.1812C117.344 22.4045 117.161 21.6381 116.803 20.9539C116.457 20.2955 115.944 19.7456 115.318 19.363C114.655 18.9602 113.895 18.7555 113.124 18.7721H107.584C105.96 18.7999 104.355 18.4174 102.909 17.6585C101.566 16.9456 100.439 15.8687 99.6513 14.5449C98.8282 13.1153 98.4136 11.4772 98.4547 9.81757C98.4203 8.1429 98.8178 6.48861 99.607 5.02212C100.352 3.66807 101.439 2.54526 102.754 1.77212C104.131 0.97126 105.691 0.563184 107.274 0.5903H120.614V5.36303H107.762C107.027 5.35307 106.304 5.55804 105.679 5.95394C105.075 6.33123 104.579 6.86407 104.238 7.4994C103.904 8.13072 103.729 8.83776 103.729 9.55621C103.729 10.2747 103.904 10.9817 104.238 11.613C104.576 12.2305 105.065 12.7474 105.656 13.113C106.279 13.4952 106.992 13.692 107.717 13.6812H113.39C115.089 13.6353 116.773 14.0259 118.287 14.8176C119.618 15.5339 120.724 16.6211 121.478 17.9539C122.249 19.353 122.639 20.9384 122.608 22.5449C122.657 24.3686 122.253 26.1752 121.434 27.7948C120.7 29.2134 119.595 30.3939 118.243 31.2039C116.862 32.0167 115.293 32.4328 113.7 32.4085H99.7178Z" fill="white"/>
<path d="M137.522 32.4085C135.936 32.4298 134.375 32.0126 133.002 31.2007C131.628 30.3888 130.494 29.2123 129.717 27.7949C128.933 26.3747 128.528 24.7677 128.543 23.1358C128.542 21.8139 128.854 20.5116 129.451 19.3403C130.06 18.1432 130.932 17.1082 131.999 16.3176C130.943 15.5402 130.078 14.5207 129.473 13.3403C128.896 12.2193 128.592 10.9717 128.587 9.70395C128.564 8.09263 128.97 6.50548 129.761 5.11305C130.53 3.76461 131.621 2.63851 132.93 1.84031C134.269 1.01947 135.803 0.594695 137.362 0.613043H149.86V5.43123H137.938C137.221 5.42582 136.516 5.62234 135.9 5.99941C135.287 6.3704 134.777 6.89423 134.415 7.52213C134.04 8.18394 133.848 8.93846 133.861 9.70395C133.861 10.4278 134.061 11.1368 134.437 11.7494C134.811 12.3753 135.328 12.8981 135.944 13.2721C136.575 13.6529 137.295 13.8494 138.027 13.8403H148.309V18.6585H138.293C137.463 18.6268 136.642 18.8347 135.922 19.2585C135.264 19.6594 134.721 20.2318 134.348 20.9176C133.978 21.6063 133.787 22.3812 133.794 23.1676C133.791 23.9391 133.982 24.6984 134.348 25.3721C134.713 26.0501 135.249 26.6152 135.9 27.0085C136.591 27.4247 137.381 27.6371 138.182 27.6221H149.838V32.3949L137.522 32.4085Z" fill="white"/>
<path d="M157.066 32.4085V27.6358H170.406C171.197 27.6541 171.976 27.4328 172.644 26.9994C173.273 26.5831 173.791 26.0129 174.151 25.3403C174.514 24.6816 174.705 23.9378 174.705 23.1812C174.715 22.4045 174.532 21.6381 174.173 20.9539C173.827 20.2966 173.314 19.7471 172.689 19.363C172.025 18.9602 171.266 18.7555 170.495 18.7721H164.955C163.337 18.7969 161.738 18.4145 160.297 17.6585C158.954 16.9456 157.828 15.8687 157.04 14.5449C156.217 13.1153 155.802 11.4772 155.843 9.81757C155.809 8.1429 156.206 6.48861 156.995 5.02212C157.74 3.66807 158.827 2.54526 160.142 1.77212C161.519 0.97126 163.08 0.563184 164.663 0.5903H178.002V5.36303H165.15C164.415 5.35307 163.693 5.55804 163.067 5.95394C162.169 6.53108 161.519 7.43835 161.252 8.49025C160.984 9.54215 161.118 10.6592 161.627 11.613C161.971 12.2477 162.476 12.7751 163.088 13.1392C163.701 13.5033 164.398 13.6906 165.106 13.6812H170.778C172.478 13.6353 174.161 14.0259 175.676 14.8176C177.006 15.5339 178.112 16.6211 178.867 17.9539C179.637 19.353 180.027 20.9384 179.997 22.5449C180.045 24.3686 179.641 26.1752 178.822 27.7948C178.086 29.2117 176.982 30.3917 175.631 31.2039C174.25 32.0167 172.681 32.4328 171.089 32.4085H157.066Z" fill="white"/>
</g>
<defs>
<clipPath id="clip0_194_45">
<rect width="180" height="33" fill="white"/>
</clipPath>
</defs>
</svg>
