<svg width="37" height="37" viewBox="0 0 37 37" fill="none" xmlns="http://www.w3.org/2000/svg">
<path d="M18.5 0C13.5935 0 8.88795 1.9491 5.41852 5.41852C1.9491 8.88795 0 13.5935 0 18.5C0 23.4065 1.9491 28.1121 5.41852 31.5815C8.88795 35.0509 13.5935 37 18.5 37C23.4065 37 28.1121 35.0509 31.5815 31.5815C35.0509 28.1121 37 23.4065 37 18.5C37 13.5935 35.0509 8.88795 31.5815 5.41852C28.1121 1.9491 23.4065 0 18.5 0ZM18.5 11.0386C20.4788 11.0389 22.3765 11.8251 23.7757 13.2243C25.1749 14.6235 25.9611 16.5212 25.9614 18.5C25.9611 20.4788 25.1749 22.3765 23.7757 23.7757C22.3765 25.1749 20.4788 25.9611 18.5 25.9614C16.5212 25.9611 14.6235 25.1749 13.2243 23.7757C11.8251 22.3765 11.0389 20.4788 11.0386 18.5C11.0389 16.5212 11.8251 14.6235 13.2243 13.2243C14.6235 11.8251 16.5212 11.0389 18.5 11.0386ZM18.5 16.9583C18.0911 16.9583 17.699 17.1208 17.4099 17.4099C17.1208 17.699 16.9583 18.0911 16.9583 18.5C16.9583 18.9089 17.1208 19.301 17.4099 19.5901C17.699 19.8792 18.0911 20.0417 18.5 20.0417C18.9089 20.0417 19.301 19.8792 19.5901 19.5901C19.8792 19.301 20.0417 18.9089 20.0417 18.5C20.0417 18.0911 19.8792 17.699 19.5901 17.4099C19.301 17.1208 18.9089 16.9583 18.5 16.9583Z" fill="#727272"/>
</svg>
