<svg width="35" height="37" viewBox="0 0 35 37" fill="none" xmlns="http://www.w3.org/2000/svg">
<path d="M35 26.2413V3.58716C35 1.36794 33.0528 -0.318578 30.9171 0.0509841L11.6671 3.38221C9.98291 3.67366 8.75 5.16821 8.75 6.91837V22.881C8.19066 22.7336 7.60427 22.655 7 22.655C3.134 22.655 0 25.8663 0 29.8275C0 33.7887 3.134 37 7 37C10.866 37 14 33.7887 14 29.8275V8.43406L29.75 5.70852V19.2947C29.1907 19.1473 28.6043 19.0688 28 19.0688C24.1341 19.0688 21 22.2801 21 26.2413C21 30.2025 24.1341 33.4138 28 33.4138C31.8659 33.4138 35 30.2025 35 26.2413Z" fill="#727272"/>
</svg>
