<svg width="39" height="39" viewBox="0 0 39 39" fill="none" xmlns="http://www.w3.org/2000/svg">
<path d="M38.2885 2.97125L36.0314 0.714161C35.805 0.487748 35.5363 0.308144 35.2405 0.185607C34.9447 0.0630695 34.6277 0 34.3075 0C33.9874 0 33.6704 0.0630695 33.3746 0.185607C33.0788 0.308144 32.81 0.487748 32.5837 0.714161L29.0583 4.24339C28.7627 4.5381 28.5402 4.89783 28.4085 5.29385L27.4822 8.07503L21.673 13.8842C20.7467 13.2169 19.7305 12.6852 18.6184 12.4262C16.0703 11.8335 13.5146 12.3592 11.7717 14.1021C11.0607 14.816 10.5318 15.6904 10.2299 16.6517C9.7728 18.0655 8.46182 19.1419 7.01904 19.2767C5.21367 19.4496 3.53552 20.1489 2.24967 21.4431C-1.227 24.9099 -0.601596 31.1563 3.62464 35.3803C7.85089 39.6042 14.0927 40.2212 17.5633 36.7568C18.8583 35.4709 19.5561 33.7935 19.7305 31.9798C19.8646 30.5439 20.941 29.2275 22.3533 28.7697C23.3147 28.4672 24.1893 27.9382 24.9036 27.2272C26.6458 25.4843 27.1691 22.9339 26.5795 20.3904C26.3213 19.2752 25.7896 18.2575 25.12 17.3281L30.9276 11.5205L33.7065 10.5942C34.1025 10.4624 34.4623 10.2399 34.757 9.94439L38.2862 6.41592C38.7429 5.95919 38.9996 5.33991 39 4.69406C39.0004 4.04821 38.7445 3.42859 38.2885 2.97125ZM15.8448 26.8143C15.1216 26.8143 14.4147 26.5998 13.8134 26.1981C13.2121 25.7963 12.7434 25.2252 12.4667 24.5571C12.1899 23.889 12.1175 23.1538 12.2586 22.4445C12.3997 21.7352 12.7479 21.0837 13.2593 20.5724C13.7707 20.061 14.4222 19.7127 15.1315 19.5717C15.8407 19.4306 16.5759 19.503 17.244 19.7797C17.9122 20.0565 18.4832 20.5251 18.885 21.1264C19.2868 21.7277 19.5012 22.4347 19.5012 23.1578C19.5012 24.1276 19.116 25.0576 18.4303 25.7433C17.7446 26.4291 16.8145 26.8143 15.8448 26.8143Z" fill="#727272"/>
</svg>
